<svg width="284" height="264" viewBox="0 0 284 264" fill="none" xmlns="http://www.w3.org/2000/svg">
<path d="M209.466 157.038C188.428 216.061 143.965 254.14 110.155 242.089C76.344 230.037 65.9893 172.421 87.0269 113.397C108.064 54.3745 152.528 16.2962 186.338 28.3473C220.149 40.3984 230.503 98.0153 209.466 157.038ZM90.9976 114.813C71.3245 170.008 81.0076 223.887 112.625 235.157C144.243 246.426 185.822 210.818 205.495 155.623C225.168 100.428 215.485 46.5484 183.868 35.2789C152.25 24.0095 110.671 59.618 90.9976 114.813Z" fill="#AC6CFF"/>
<path d="M209.466 157.038C188.428 216.061 143.965 254.14 110.155 242.089C76.344 230.037 65.9893 172.421 87.0269 113.397C108.064 54.3745 152.528 16.2962 186.338 28.3473C220.149 40.3984 230.503 98.0153 209.466 157.038ZM90.9976 114.813C71.3245 170.008 81.0076 223.887 112.625 235.157C144.243 246.426 185.822 210.818 205.495 155.623C225.168 100.428 215.485 46.5484 183.868 35.2789C152.25 24.0095 110.671 59.618 90.9976 114.813Z" fill="#AC6CFF"/>
<path d="M191.058 87.6918C236.299 135.664 251.805 194.518 225.692 219.144C199.579 243.771 141.734 224.846 96.4926 176.873C51.2512 128.901 35.7448 70.0473 61.8581 45.4205C87.9715 20.7938 145.816 39.7193 191.058 87.6918ZM99.5594 173.981C141.867 218.842 195.959 236.54 220.379 213.511C244.799 190.481 230.298 135.445 187.991 90.5839C145.684 45.7229 91.5909 28.0249 67.1713 51.0544C42.7516 74.0839 57.2523 129.12 99.5594 173.981Z" fill="#AC6CFF"/>
<path d="M191.058 87.6918C236.299 135.664 251.805 194.518 225.692 219.144C199.579 243.771 141.734 224.846 96.4926 176.873C51.2512 128.901 35.7448 70.0473 61.8581 45.4205C87.9715 20.7938 145.816 39.7193 191.058 87.6918ZM99.5594 173.981C141.867 218.842 195.959 236.54 220.379 213.511C244.799 190.481 230.298 135.445 187.991 90.5839C145.684 45.7229 91.5909 28.0249 67.1713 51.0544C42.7516 74.0839 57.2523 129.12 99.5594 173.981Z" fill="#AC6CFF"/>
<path d="M159.566 196.412C93.1754 213.624 32.0528 199.41 23.0451 164.665C14.0373 129.919 60.5555 87.7998 126.946 70.588C193.337 53.3762 254.46 67.5901 263.468 102.336C272.475 137.081 225.957 179.201 159.566 196.412ZM128.004 74.6685C65.9195 90.7639 22.4185 130.152 30.842 162.644C39.2654 195.135 96.4237 208.427 158.508 192.332C220.593 176.237 264.094 136.849 255.671 104.357C247.247 71.865 190.089 58.5731 128.004 74.6685Z" fill="#AC6CFF"/>
<path d="M159.566 196.412C93.1754 213.624 32.0528 199.41 23.0451 164.665C14.0373 129.919 60.5555 87.7998 126.946 70.588C193.337 53.3762 254.46 67.5901 263.468 102.336C272.475 137.081 225.957 179.201 159.566 196.412ZM128.004 74.6685C65.9195 90.7639 22.4185 130.152 30.842 162.644C39.2654 195.135 96.4237 208.427 158.508 192.332C220.593 176.237 264.094 136.849 255.671 104.357C247.247 71.865 190.089 58.5731 128.004 74.6685Z" fill="#AC6CFF"/>
<circle cx="258.882" cy="103.003" r="18.9381" transform="rotate(19.6175 258.882 103.003)" fill="white"/>
<circle cx="258.882" cy="103.003" r="18.9381" transform="rotate(19.6175 258.882 103.003)" fill="white"/>
<circle cx="216.744" cy="221.226" r="18.9381" transform="rotate(19.6175 216.744 221.226)" fill="white"/>
<circle cx="216.744" cy="221.226" r="18.9381" transform="rotate(19.6175 216.744 221.226)" fill="white"/>
<circle cx="25.1231" cy="165.539" r="18.9381" transform="rotate(19.6175 25.1231 165.539)" fill="white"/>
<circle cx="25.1231" cy="165.539" r="18.9381" transform="rotate(19.6175 25.1231 165.539)" fill="white"/>
<circle cx="69.8609" cy="40.0188" r="18.9381" transform="rotate(19.6175 69.8609 40.0188)" fill="white"/>
<circle cx="69.8609" cy="40.0188" r="18.9381" transform="rotate(19.6175 69.8609 40.0188)" fill="white"/>
<path d="M106.538 142.069L97.4675 138.836L130.701 97.8144L141.191 101.553L141.008 154.355L131.938 151.122L132.7 109.369L132.334 109.238L106.538 142.069ZM113.391 123.783L138.127 132.6L135.694 139.425L110.958 130.608L113.391 123.783ZM151.748 158.751C150.358 158.256 149.342 157.342 148.697 156.011C148.053 154.68 147.989 153.315 148.505 151.916C148.98 150.536 149.887 149.535 151.228 148.911C152.569 148.288 153.934 148.224 155.324 148.719C156.667 149.198 157.661 150.103 158.305 151.434C158.965 152.77 159.057 154.128 158.583 155.508C158.236 156.434 157.689 157.194 156.944 157.789C156.214 158.389 155.385 158.782 154.458 158.968C153.552 159.144 152.649 159.072 151.748 158.751ZM191.11 119.346L174.391 166.253L165.893 163.225L182.612 116.317L191.11 119.346Z" fill="white"/>
<path d="M106.538 142.069L97.4675 138.836L130.701 97.8144L141.191 101.553L141.008 154.355L131.938 151.122L132.7 109.369L132.334 109.238L106.538 142.069ZM113.391 123.783L138.127 132.6L135.694 139.425L110.958 130.608L113.391 123.783ZM151.748 158.751C150.358 158.256 149.342 157.342 148.697 156.011C148.053 154.68 147.989 153.315 148.505 151.916C148.98 150.536 149.887 149.535 151.228 148.911C152.569 148.288 153.934 148.224 155.324 148.719C156.667 149.198 157.661 150.103 158.305 151.434C158.965 152.77 159.057 154.128 158.583 155.508C158.236 156.434 157.689 157.194 156.944 157.789C156.214 158.389 155.385 158.782 154.458 158.968C153.552 159.144 152.649 159.072 151.748 158.751ZM191.11 119.346L174.391 166.253L165.893 163.225L182.612 116.317L191.11 119.346Z" fill="white"/>
</svg>
