<svg width="200" height="591" viewBox="0 0 200 591" fill="none" xmlns="http://www.w3.org/2000/svg">
<path d="M110.079 16.7881V49.2109L82 65.4229L53.9209 49.2109V16.7881L82 0.576172L110.079 16.7881Z" fill="white" stroke="#AC6CFF"/>
<path d="M75 111.827V109.497L89.5455 114.732V117.267L75 122.501V120.172L86.9034 116.06V115.946L75 111.827ZM80.696 112.217V119.774H78.8494V112.217H80.696ZM75 127.302H89.5455V132.487C89.5455 133.613 89.3513 134.549 88.9631 135.292C88.5748 136.04 88.0374 136.599 87.3509 136.968C86.669 137.337 85.8807 137.522 84.9858 137.522C84.0956 137.522 83.312 137.335 82.6349 136.961C81.9626 136.592 81.4394 136.033 81.0653 135.285C80.6913 134.542 80.5043 133.606 80.5043 132.479V128.552H82.3935V132.281C82.3935 132.991 82.4953 133.568 82.6989 134.014C82.9025 134.463 83.1984 134.792 83.5866 135.001C83.9749 135.209 84.4413 135.313 84.9858 135.313C85.535 135.313 86.0109 135.207 86.4134 134.994C86.8158 134.785 87.1236 134.456 87.3366 134.006C87.5545 133.561 87.6634 132.977 87.6634 132.252V129.497H75V127.302ZM81.5625 134.482L75 138.076V135.576L81.5625 132.053V134.482ZM87.6562 142.175H89.5455V153.432H87.6562V148.894H75V146.706H87.6562V142.175ZM89.5455 160.814H75V158.62H89.5455V160.814ZM75 166.711H89.5455V175.73H87.6562V168.905H83.2244V175.084H81.3423V168.905H75V166.711ZM89.5455 183.324H75V181.129H89.5455V183.324ZM84.8153 201.301V199.085C85.2888 199 85.7055 198.841 86.0653 198.609C86.4252 198.377 86.7306 198.093 86.9815 197.757C87.2325 197.421 87.4219 197.044 87.5497 196.628C87.6776 196.216 87.7415 195.778 87.7415 195.314C87.7415 194.476 87.5308 193.725 87.1094 193.062C86.688 192.404 86.0701 191.883 85.2557 191.5C84.4413 191.121 83.447 190.932 82.2727 190.932C81.089 190.932 80.09 191.121 79.2756 191.5C78.4612 191.883 77.8456 192.406 77.429 193.069C77.0123 193.732 76.804 194.478 76.804 195.307C76.804 195.766 76.8655 196.201 76.9886 196.613C77.1165 197.03 77.3035 197.406 77.5497 197.743C77.7959 198.079 78.0966 198.363 78.4517 198.595C78.8116 198.832 79.2235 198.995 79.6875 199.085L79.6804 201.301C78.9654 201.182 78.3073 200.953 77.706 200.612C77.1094 200.276 76.5933 199.843 76.1577 199.312C75.7268 198.787 75.393 198.185 75.1562 197.508C74.9195 196.831 74.8011 196.093 74.8011 195.292C74.8011 194.033 75.0994 192.911 75.696 191.926C76.2973 190.941 77.1567 190.164 78.2741 189.596C79.3916 189.033 80.7244 188.751 82.2727 188.751C83.8258 188.751 85.1586 189.035 86.2713 189.603C87.3887 190.172 88.2457 190.948 88.8423 191.933C89.4437 192.918 89.7443 194.038 89.7443 195.292C89.7443 196.064 89.633 196.784 89.4105 197.451C89.1927 198.124 88.8707 198.727 88.4446 199.262C88.0232 199.798 87.5071 200.24 86.8963 200.591C86.2902 200.941 85.5966 201.178 84.8153 201.301ZM89.5455 208.822H75V206.627H89.5455V208.822ZM75 215.946V213.617L89.5455 218.851V221.387L75 226.621V224.291L86.9034 220.179V220.066L75 215.946ZM80.696 216.337V223.894H78.8494V216.337H80.696ZM75 231.421H89.5455V233.616H76.8892V240.207H75V231.421ZM89.5455 255.598H75V253.403H89.5455V255.598ZM89.5455 273.234H75V271.217L85.6676 263.824V263.689H75V261.494H89.5455V263.525L78.8636 270.926V271.061H89.5455V273.234ZM87.6562 278.418H89.5455V289.675H87.6562V285.137H75V282.949H87.6562V278.418ZM75 294.863H89.5455V303.982H87.6562V297.057H83.2244V303.506H81.3423V297.057H76.8892V304.067H75V294.863ZM75 309.614H89.5455V311.808H76.8892V318.399H75V309.614ZM75 323.603H89.5455V325.797H76.8892V332.388H75V323.603ZM89.5455 339.786H75V337.592H89.5455V339.786ZM84.9503 355.526C85.3812 355.389 85.767 355.204 86.108 354.972C86.4536 354.745 86.7472 354.473 86.9886 354.155C87.2348 353.838 87.4219 353.476 87.5497 353.069C87.6776 352.666 87.7415 352.224 87.7415 351.741C87.7415 350.922 87.5308 350.183 87.1094 349.525C86.688 348.867 86.0701 348.346 85.2557 347.962C84.446 347.583 83.4541 347.394 82.2798 347.394C81.1009 347.394 80.1042 347.586 79.2898 347.969C78.4754 348.353 77.8575 348.878 77.4361 349.546C77.0147 350.214 76.804 350.974 76.804 351.826C76.804 352.617 76.965 353.305 77.2869 353.893C77.6089 354.484 78.0634 354.941 78.6506 355.263C79.2424 355.59 79.9384 355.753 80.7386 355.753L80.6321 356.322V352.16H82.4432V357.877H80.7884C79.5668 357.877 78.5062 357.617 77.6065 357.096C76.7116 356.58 76.0204 355.865 75.5327 354.951C75.045 354.042 74.8011 353 74.8011 351.826C74.8011 350.51 75.1042 349.354 75.7102 348.36C76.3163 347.37 77.1757 346.599 78.2884 346.045C79.4058 345.491 80.7315 345.214 82.2656 345.214C83.4257 345.214 84.4673 345.375 85.3906 345.697C86.3139 346.019 87.0975 346.471 87.7415 347.053C88.3902 347.64 88.8849 348.329 89.2259 349.12C89.5715 349.915 89.7443 350.784 89.7443 351.726C89.7443 352.512 89.6283 353.244 89.3963 353.921C89.1643 354.603 88.8352 355.209 88.4091 355.739C87.983 356.274 87.4763 356.717 86.8892 357.067C86.3068 357.418 85.6605 357.654 84.9503 357.778V355.526ZM75 363.363H89.5455V372.482H87.6562V365.557H83.2244V372.006H81.3423V365.557H76.8892V372.567H75V363.363ZM89.5455 389.854H75V387.837L85.6676 380.443V380.308H75V378.114H89.5455V380.145L78.8636 387.545V387.68H89.5455V389.854ZM84.8153 407.836V405.62C85.2888 405.535 85.7055 405.376 86.0653 405.144C86.4252 404.912 86.7306 404.628 86.9815 404.292C87.2325 403.956 87.4219 403.579 87.5497 403.163C87.6776 402.751 87.7415 402.313 87.7415 401.849C87.7415 401.011 87.5308 400.26 87.1094 399.597C86.688 398.939 86.0701 398.418 85.2557 398.035C84.4413 397.656 83.447 397.467 82.2727 397.467C81.089 397.467 80.09 397.656 79.2756 398.035C78.4612 398.418 77.8456 398.942 77.429 399.604C77.0123 400.267 76.804 401.013 76.804 401.842C76.804 402.301 76.8655 402.737 76.9886 403.149C77.1165 403.565 77.3035 403.942 77.5497 404.278C77.7959 404.614 78.0966 404.898 78.4517 405.13C78.8116 405.367 79.2235 405.53 79.6875 405.62L79.6804 407.836C78.9654 407.718 78.3073 407.488 77.706 407.147C77.1094 406.811 76.5933 406.378 76.1577 405.847C75.7268 405.322 75.393 404.72 75.1562 404.043C74.9195 403.366 74.8011 402.628 74.8011 401.827C74.8011 400.568 75.0994 399.446 75.696 398.461C76.2973 397.476 77.1567 396.7 78.2741 396.131C79.3916 395.568 80.7244 395.286 82.2727 395.286C83.8258 395.286 85.1586 395.57 86.2713 396.139C87.3887 396.707 88.2457 397.483 88.8423 398.468C89.4437 399.453 89.7443 400.573 89.7443 401.827C89.7443 402.599 89.633 403.319 89.4105 403.987C89.1927 404.659 88.8707 405.263 88.4446 405.798C88.0232 406.333 87.5071 406.775 86.8963 407.126C86.2902 407.476 85.5966 407.713 84.8153 407.836ZM75 413.162H89.5455V422.281H87.6562V415.357H83.2244V421.806H81.3423V415.357H76.8892V422.367H75V413.162Z" fill="white"/>
<rect x="54.5" y="101.5" width="56" height="339" stroke="white"/>
<rect x="52" y="99" width="4" height="5" fill="#D9D9D9"/>
<rect x="108" y="99" width="4" height="5" fill="#D9D9D9"/>
<rect x="52" y="438" width="4" height="5" fill="#D9D9D9"/>
<rect x="108" y="438" width="4" height="5" fill="#D9D9D9"/>
<mask id="path-8-inside-1_346_1946" fill="white">
<path d="M200 591H150V575H50V591H0V476H50V492H150V476H200V591Z"/>
</mask>
<path d="M200 591H150V575H50V591H0V476H50V492H150V476H200V591Z" fill="#AC6CFF"/>
<path d="M200 591V596H205V591H200ZM150 591H145V596H150V591ZM150 575H155V570H150V575ZM50 575V570H45V575H50ZM50 591V596H55V591H50ZM0 591H-5V596H0V591ZM0 476V471H-5V476H0ZM50 476H55V471H50V476ZM50 492H45V497H50V492ZM150 492V497H155V492H150ZM150 476V471H145V476H150ZM200 476H205V471H200V476ZM200 591V586H150V591V596H200V591ZM150 591H155V575H150H145V591H150ZM150 575V570H50V575V580H150V575ZM50 575H45V591H50H55V575H50ZM50 591V586H0V591V596H50V591ZM0 591H5V476H0H-5V591H0ZM0 476V481H50V476V471H0V476ZM50 476H45V492H50H55V476H50ZM50 492V497H150V492V487H50V492ZM150 492H155V476H150H145V492H150ZM150 476V481H200V476V471H150V476ZM200 476H195V591H200H205V476H200Z" fill="#EADAFF" mask="url(#path-8-inside-1_346_1946)"/>
<path d="M87.5 22.4902L85.333 30.1638L81 32.422L85.333 34.6792L87.5 41.4497L89.667 34.6782L94 32.421L89.667 30.1648L87.5 22.4902ZM73 28.4774L72 32.4689L69 33.4668L72 34.4646L73 38.4561L74 34.4646L77 33.4668L74 32.4689L73 28.4774Z" fill="#AC6CFF"/>
</svg>
