<svg width="251" height="183" viewBox="0 0 251 183" fill="none" xmlns="http://www.w3.org/2000/svg">
<g clip-path="url(#clip0_492_1665)">
<path d="M211.797 31.3932C214.106 40.1902 216.493 48.6947 219.026 58.4006C223.36 55.5203 224.428 50.9266 223.692 46.7057C221.482 34.043 218.993 21.2619 215.513 8.71071C213.549 1.52616 207.743 0.0358706 203.22 4.78988C195.555 12.6053 188.369 20.95 180.905 29.1764C180.47 29.6431 179.857 30.1969 179.88 30.6949C179.691 32.5685 179.959 34.4735 180.048 36.4655C181.598 36.4724 183.548 37.3012 184.517 36.5733C187.96 34.1283 191.024 31.3595 194.188 28.7961C195.949 27.4273 197.43 25.9402 200.785 25.5743C200.028 28.9978 199.371 32.6267 198.615 36.0502C180.067 105.676 121.438 147.035 52.5098 139.728C43.6276 138.722 34.8789 136.633 25.9743 135.129C22.8538 134.617 19.8337 134.311 16.7132 133.799C16.3791 134.471 16.3235 135.262 15.9894 135.934C17.4274 137.522 18.8099 139.901 20.66 140.524C26.6897 142.923 32.7193 145.323 38.9827 146.844C101.26 162.234 163.47 133.632 193.811 75.0419C199.592 63.8206 203.399 51.2725 207.965 39.3721C208.945 36.8576 209.468 34.3118 210.17 31.6789C210.426 31.2993 211.061 31.2435 211.797 31.3932Z" fill="black"/>
</g>
<defs>
<clipPath id="clip0_492_1665">
<rect width="235.367" height="88.1484" fill="white" transform="matrix(-0.898554 0.438862 0.438862 0.898554 211.537 0)"/>
</clipPath>
</defs>
</svg>
