<svg width="182" height="197" viewBox="0 0 182 197" fill="none" xmlns="http://www.w3.org/2000/svg">
<g clip-path="url(#clip0_492_1663)">
<path d="M156.865 156.395C150.404 159.933 144.19 163.477 137.057 167.368C140.259 170.281 144.118 170.252 147.298 168.852C156.837 164.65 166.41 160.203 175.589 155.006C180.85 152.055 180.789 147.125 176.066 144.421C168.253 139.793 160.123 135.651 152.027 131.262C151.566 131.005 150.997 130.621 150.608 130.735C149.087 130.944 147.638 131.524 146.082 131.979C146.407 133.219 146.168 134.938 146.951 135.574C149.618 137.857 152.46 139.775 155.162 141.813C156.619 142.958 158.111 143.857 159.116 146.469C156.248 146.522 153.239 146.695 150.372 146.747C91.3739 145.299 46.1707 106.36 37.2418 49.8295C36.1422 42.5326 35.9273 35.1341 35.2166 27.7235C34.9555 25.1294 34.5534 22.6552 34.2922 20.0611C33.6896 19.9231 33.0528 20.0307 32.4501 19.8927C31.5016 21.348 29.9162 22.9109 29.8181 24.5104C29.2078 29.7939 28.5975 35.0773 28.7309 40.3791C29.8506 93.1446 65.7333 137.399 118.523 150.401C128.627 152.867 139.359 153.501 149.74 154.864C151.937 155.165 154.061 155.094 156.292 155.149C156.647 155.28 156.827 155.778 156.865 156.395Z" fill="black"/>
</g>
<defs>
<clipPath id="clip0_492_1663">
<rect width="195.851" height="71.319" fill="white" transform="matrix(-0.647302 -0.762234 -0.762234 0.647302 181.627 150.152)"/>
</clipPath>
</defs>
</svg>
