<svg width="40" height="40" viewBox="0 0 40 40" fill="none" xmlns="http://www.w3.org/2000/svg">
<path d="M37.5 20.0002C37.504 20.5129 37.3481 21.0141 37.0541 21.4341C36.7601 21.8541 36.3425 22.1721 35.8594 22.3439L25.9469 25.9486L22.3438 35.8595C22.1662 36.338 21.8464 36.7506 21.4275 37.042C21.0085 37.3334 20.5104 37.4896 20 37.4896C19.4897 37.4896 18.9916 37.3334 18.5726 37.042C18.1536 36.7506 17.8339 36.338 17.6563 35.8595L14.0516 25.9377L4.14066 22.3439C3.66221 22.1663 3.24958 21.8466 2.95819 21.4276C2.66681 21.0086 2.51062 20.5105 2.51062 20.0002C2.51062 19.4898 2.66681 18.9917 2.95819 18.5727C3.24958 18.1538 3.66221 17.834 4.14066 17.6564L14.0625 14.0517L17.6563 4.14078C17.8339 3.66234 18.1536 3.2497 18.5726 2.95832C18.9916 2.66693 19.4897 2.51074 20 2.51074C20.5104 2.51074 21.0085 2.66693 21.4275 2.95832C21.8464 3.2497 22.1662 3.66234 22.3438 4.14078L25.9485 14.0627L35.8594 17.6564C36.3425 17.8282 36.7601 18.1462 37.0541 18.5662C37.3481 18.9862 37.504 19.4874 37.5 20.0002Z" fill="#FBEBD7"/>
</svg>
