<svg width="122" height="231" viewBox="0 0 122 231" fill="none" xmlns="http://www.w3.org/2000/svg">
<circle cx="6.48877" cy="115.371" r="115.371" fill="#E0B15F"/>
<path d="M6.48876 -4.57764e-05C21.6395 -4.57764e-05 36.6419 2.98412 50.6394 8.78207C64.6369 14.58 77.3553 23.0782 88.0686 33.7914C98.7818 44.5046 107.28 57.2231 113.078 71.2205C118.876 85.218 121.86 100.22 121.86 115.371C121.86 130.522 118.876 145.524 113.078 159.522C107.28 173.519 98.7818 186.238 88.0685 196.951C77.3553 207.664 64.6369 216.162 50.6394 221.96C36.6419 227.758 21.6395 230.742 6.48875 230.742L6.48876 115.371L6.48876 -4.57764e-05Z" fill="#D8A13F"/>
<path d="M23.8729 180.784C27.3821 184.936 38.0037 186.357 42.8759 186.548L15.9084 164.486C17.1011 168.189 20.3636 176.632 23.8729 180.784Z" fill="#8D5A2F" stroke="#8D5A2F" stroke-linecap="round"/>
<path d="M64.8277 118.551C34.7259 132.546 -9.39443 128.934 -28.7878 123.33C-42.962 120.529 -62.8058 120.891 -28.7878 144.757C13.7348 174.588 72.2446 136.186 79.3316 128.44C86.0741 121.07 83.6169 109.815 64.8277 118.551Z" fill="#8D5A2F" stroke="#8D5A2F" stroke-linecap="round"/>
<path d="M4.34627 48.6207C-17.805 49.5437 -35.0997 40.4349 -40.9781 35.7651C-57.3499 27.9638 -81.7866 20.635 -48.5597 53.73C-7.02604 95.0988 73.569 99.7137 80.3265 91.6377C87.0839 83.5617 79.0079 73.6728 54.4503 76.8043C29.8928 79.9358 32.0354 47.467 4.34627 48.6207Z" fill="#8D5A2F" stroke="#8D5A2F" stroke-linecap="round"/>
<path d="M22.6407 29.3373C22.1133 11.8009 0.00600052 4.88962 -10.9817 3.62603C34.1119 -6.79035 72.9646 20.0527 86.7542 34.7763C91.6937 40.0504 84.4797 49.1482 77.3597 40.0504C70.2396 30.9525 54.9447 38.1275 48.1872 42.8522C39.8915 45.6541 23.1681 46.8738 22.6407 29.3373Z" fill="#8D5A2F" stroke="#8D5A2F" stroke-linecap="round"/>
<path d="M5.93471 193.995C-4.48166 206.257 -20.4908 204.158 -27.1933 201.576C-41.9718 195.643 -87.0217 181.304 -61.8047 170.591C-46.7258 164.185 -30.9841 173.393 -25.71 181.304C-20.4359 189.215 -15.8211 180.15 -6.59131 183.776C2.99852 187.543 11.2088 187.237 5.93471 193.995Z" fill="#8D5A2F" stroke="#8D5A2F" stroke-linecap="round"/>
<path d="M99.8529 150.4C107.256 164.685 99.2502 178.706 94.3218 183.932C83.2329 195.362 59.3512 215.423 52.5354 204.228C44.0157 190.234 66.8023 176.765 76.1217 174.88C85.441 172.996 95.6079 160.773 85.6512 158.122C75.6946 155.472 95.5965 142.96 99.8529 150.4Z" fill="#8D5A2F" stroke="#8D5A2F" stroke-linecap="round"/>
<path d="M21.3225 95.4341C21.9565 95.4342 22.4699 95.9485 22.4699 96.5825C22.4698 97.2164 21.9564 97.7298 21.3225 97.73C20.6885 97.73 20.1742 97.2165 20.174 96.5825C20.174 95.9484 20.6884 95.4341 21.3225 95.4341Z" fill="#8D5A2F" stroke="#8D5A2F"/>
<circle cx="50.9891" cy="166.794" r="1.14816" fill="#8D5A2F" stroke="#8D5A2F"/>
<path d="M100.434 108.949C101.068 108.949 101.582 109.463 101.582 110.097C101.581 110.731 101.068 111.245 100.434 111.245C99.8002 111.245 99.2859 110.731 99.2858 110.097C99.2858 109.463 99.8001 108.949 100.434 108.949Z" fill="#8D5A2F" stroke="#8D5A2F"/>
<path d="M38.7466 208.876C24.6383 207.03 13.8593 217.336 10.2334 222.72C1.49813 234.422 35.4502 219.424 35.1206 217.776C34.791 216.128 46.6577 210.524 38.7466 208.876Z" fill="#8D5A2F"/>
</svg>
