<svg width="70" height="69" viewBox="0 0 70 69" fill="none" xmlns="http://www.w3.org/2000/svg">
<path d="M59.6305 0.72168C62.3818 0.378545 65.1248 0.20912 67.8629 0.379883H67.8824C68.279 0.379889 68.4272 0.460254 68.5123 0.555664C68.6186 0.675005 68.6926 0.886659 68.7789 1.31152C69.1065 12.0954 66.5393 22.0725 60.9166 31.4062L60.3619 32.3086C54.5376 41.4406 46.6205 48.3193 36.7613 52.792L35.8004 53.2168L35.7984 53.2188C35.0326 53.5584 34.2213 53.8567 33.3795 54.1582C32.7503 54.3836 32.1032 54.6112 31.4518 54.8574L30.816 55.1035C30.566 55.1867 30.4194 55.2052 30.3131 55.1816C30.224 55.1618 30.1112 55.1 29.9654 54.8818L29.9488 54.8564L29.9264 54.834L27.2496 52.1621L24.5719 49.4902C24.4342 49.3528 24.3426 49.1928 24.3131 49.0312C24.292 48.9153 24.3001 48.7868 24.36 48.6484L24.4381 48.5068C24.5523 48.3359 24.7132 48.2579 24.8902 48.2578C25.0512 48.2578 25.245 48.323 25.4322 48.4805L25.5123 48.5537L30.1764 53.208C30.358 53.3892 30.5468 53.5368 30.7779 53.5752C31.0048 53.6128 31.2062 53.5334 31.3814 53.4473C38.7787 50.9276 45.363 46.9466 50.9752 41.6611L51.5162 41.1455L51.5172 41.1445C58.083 34.7606 62.5284 27.2367 65.1685 18.7363L65.4185 17.9111V17.9082C66.8087 13.0529 67.5035 8.02467 67.5035 2.8252C67.5034 2.59721 67.4442 2.4252 67.401 2.2959C67.3578 2.16677 67.3317 2.08033 67.3316 1.96387V1.65137H63.7213C56.6034 1.99784 49.8258 3.55771 43.3932 6.67969C35.8203 10.2062 29.3844 15.1991 24.2486 21.8154L23.7555 22.4609C20.1083 27.1412 17.5053 32.3373 15.5973 37.8711C15.4882 38.0994 15.4731 38.3154 15.5533 38.5156C15.589 38.6047 15.641 38.6825 15.6939 38.7471L15.8385 38.9014L20.5025 43.5547C20.6206 43.6725 20.7564 43.9401 20.7564 44.1963C20.7563 44.4089 20.6642 44.6086 20.4908 44.7305L20.4107 44.7783C20.2877 44.8396 20.1316 44.8689 20.0016 44.8545C19.8728 44.8401 19.8169 44.7917 19.7935 44.7451L19.7711 44.7002L19.735 44.6641L17.316 42.251C16.3134 41.2505 15.4181 40.1862 14.3766 39.3164C14.1391 39.0774 14.0138 38.7459 14.0728 38.4072L14.11 38.2617C16.2748 31.781 19.4055 25.7886 23.8131 20.4365L24.2437 19.9199L24.2467 19.917C28.882 14.2636 34.5479 9.80732 40.9029 6.55078L40.9039 6.55176L40.9078 6.5498C46.7447 3.46631 53.0997 1.58026 59.6314 0.722656L59.6305 0.72168Z" fill="white" stroke="#AC6CFF" stroke-width="0.625"/>
<path d="M46.8074 11.9297C52.6847 11.9297 57.2057 16.4477 57.2058 22.1318C57.2058 27.8194 52.6816 32.335 46.9802 32.335C41.279 32.3348 36.7556 27.8193 36.7556 22.1318C36.7558 16.6102 41.2857 11.9299 46.8074 11.9297ZM46.8074 13.373C41.7988 13.3732 37.8582 17.3051 37.8582 22.3047C37.8583 27.3042 41.7988 31.2351 46.8074 31.2354V31.2363L46.8191 31.2354C51.8129 31.0573 55.7575 27.1378 55.7576 22.3047C55.7576 17.305 51.8162 13.373 46.8074 13.373Z" fill="white" stroke="#AC6CFF" stroke-width="0.625"/>
<path d="M41.7983 51.748C42.0575 51.7481 42.2234 51.8408 42.3315 51.9756C42.444 52.1159 42.5161 52.3331 42.52 52.6182C42.3465 53.4885 42.1811 54.4682 41.854 55.2842L41.8462 55.3037C40.028 60.9117 36.7765 65.0701 31.7729 67.9521L31.2837 68.2266L31.2788 68.2295C30.681 68.5704 30.381 68.5744 30.2339 68.501C30.1038 68.4358 29.9678 68.248 29.8784 67.8018L29.8423 67.5947L29.8413 67.5869L29.8403 67.5801L28.8042 62.0654C28.4606 60.2227 28.1167 58.3793 27.7729 56.5781V55.8281C27.8843 55.6566 28.0928 55.5401 28.4966 55.54C28.5669 55.54 28.6703 55.5778 28.7905 55.6807C28.897 55.7717 28.9922 55.8954 29.061 56.0215C29.2293 57.0286 29.4032 58.0539 29.7417 59.2441C29.9174 61.6579 30.44 63.9372 30.7788 66.3037L30.8442 66.7588L31.2427 66.5312C32.3165 65.9189 33.3878 65.1738 34.3413 64.4131L34.7427 64.0869L34.7515 64.0791C38.26 60.9281 40.1888 57.0768 41.0649 52.5459C41.1434 52.2326 41.2533 52.0331 41.3716 51.915C41.4818 51.8052 41.6165 51.748 41.7983 51.748Z" fill="white" stroke="#AC6CFF" stroke-width="0.625"/>
<path d="M16.2889 26.1958C16.5274 26.1785 16.7739 26.3173 16.912 26.5728L16.9716 26.7124C17.0255 26.874 17.0002 27.0296 16.9042 27.1665C16.8171 27.2906 16.6627 27.4106 16.4325 27.4868L16.329 27.5171L16.3173 27.52L16.3055 27.5239C15.804 27.6907 15.2575 27.8168 14.6932 27.9468C14.2744 28.0432 13.8454 28.1419 13.4315 28.2603L13.0243 28.3853L13.0204 28.3872C8.46139 29.962 4.95085 32.765 2.32312 36.7856L2.24109 36.9116L2.28894 37.0552C2.37593 37.3156 2.40213 37.4437 2.40222 37.5161C2.40222 37.5442 2.3974 37.5538 2.39636 37.5562C2.39471 37.5599 2.38884 37.5725 2.36414 37.5972L1.93347 38.0269L2.53406 38.1265C3.57192 38.2991 4.6031 38.4709 5.46082 38.6421V38.6411C6.67444 38.9005 7.88766 39.1176 9.07214 39.3325C10.2601 39.548 11.4193 39.7623 12.5341 40.019L12.5692 40.0269H12.8885C13.2621 40.1698 13.4451 40.5204 13.3446 40.8218C13.2695 41.0467 13.1708 41.1887 13.0575 41.2642C12.9671 41.3243 12.8306 41.3663 12.6083 41.3286L12.5067 41.3071C11.8033 41.1317 11.0579 41.0005 10.326 40.8716C9.58985 40.7419 8.86668 40.615 8.18835 40.4458L8.11804 40.728L8.18835 40.4448L8.18347 40.4438L7.33582 40.2563C6.4884 40.0757 5.63932 39.913 4.78113 39.7515C3.63514 39.5357 2.473 39.3215 1.26843 39.064L1.23621 39.0571H0.893433C0.527842 38.9795 0.39664 38.8494 0.347534 38.7319C0.2893 38.5925 0.291813 38.3519 0.449097 37.9526C1.47796 36.0721 2.66791 34.2121 4.18738 32.6958L3.96667 32.4741L4.18835 32.6958L4.19324 32.6899C7.4166 29.3042 11.32 27.4332 15.7548 26.4077C15.8307 26.4075 15.9474 26.4056 16.0497 26.3716C16.1202 26.3481 16.2081 26.3037 16.2762 26.2163C16.2812 26.2099 16.2844 26.2023 16.2889 26.1958Z" fill="white" stroke="#AC6CFF" stroke-width="0.625"/>
<path d="M29.3 39.2715C29.4597 39.2583 29.638 39.3066 29.8439 39.4365C30.0124 39.6256 30.0683 40.0508 29.7326 40.4463L29.6574 40.5273C26.326 43.8517 23.007 47.2958 19.5695 50.6436L18.0891 52.0713L18.0842 52.0762C17.8206 52.3391 17.5445 52.6594 17.2766 52.9473C17.0004 53.244 16.7129 53.5297 16.3898 53.7715L16.3723 53.7852L16.3566 53.8008C16.2224 53.9347 16.1106 53.9799 16.0207 53.9912C15.9272 54.0029 15.8166 53.9823 15.6799 53.9141L15.6603 53.9043L15.6398 53.8975L15.5021 53.8418C15.3824 53.7826 15.3115 53.7134 15.2658 53.6406C15.2121 53.555 15.1769 53.4374 15.1662 53.2705C15.2416 53.1768 15.3116 53.0733 15.3683 52.9883C15.4146 52.9191 15.4554 52.8601 15.4914 52.8105L15.5891 52.6914L25.2629 43.0381L28.717 39.5908C28.9391 39.3692 29.1334 39.2853 29.3 39.2715Z" fill="white" stroke="#AC6CFF" stroke-width="0.625"/>
<path d="M10.3636 57.9951C10.6075 58.1214 10.7834 58.2313 10.8929 58.3877L10.9427 58.4707C10.9868 58.5588 10.9926 58.6511 10.9622 58.7725C10.9315 58.8949 10.8692 59.0235 10.7894 59.1836C10.6172 59.3559 10.2976 59.686 10.1077 60.0361C8.04072 62.1004 5.99987 64.3028 3.78058 66.3496C3.70495 66.3889 3.63811 66.4271 3.57941 66.4609C3.50618 66.5031 3.45036 66.5353 3.39581 66.5625C3.29701 66.6118 3.21554 66.6376 3.10382 66.6377C2.86533 66.6377 2.64375 66.5227 2.52863 66.3096C2.4531 66.078 2.42923 65.9214 2.44269 65.7998C2.45201 65.7161 2.48072 65.6334 2.55011 65.542L2.63312 65.4473L6.77863 61.3105C7.80521 60.2862 8.6625 59.4304 9.68585 58.4092C9.85202 58.3224 9.9825 58.2383 10.0999 58.1602C10.1887 58.1011 10.2714 58.0481 10.3636 57.9951Z" fill="white" stroke="#AC6CFF" stroke-width="0.625"/>
<path d="M8.88455 50.8901C9.16926 50.9142 9.39169 51.0636 9.51932 51.2476C9.6614 51.4525 9.65976 51.6496 9.58377 51.771C9.48213 51.8837 9.42727 51.9943 9.38846 52.0718C9.36706 52.1145 9.34995 52.1467 9.33279 52.1743L9.2742 52.2485L2.5369 58.9712L2.38846 59.1187C2.14972 59.2748 1.95341 59.3626 1.80154 59.3765C1.73004 59.383 1.67489 59.3726 1.62869 59.3501C1.58203 59.3274 1.52404 59.2828 1.46268 59.1909L1.44608 59.1655L1.42361 59.144L1.35526 59.0562C1.29391 58.9563 1.25662 58.8227 1.25662 58.6753C1.25664 58.5282 1.29413 58.3952 1.35526 58.2954L1.42361 58.2075L6.60623 53.0356C7.2124 52.4308 7.67348 51.9713 8.2283 51.5298L8.47342 51.3413L8.53201 51.2964L8.56522 51.231C8.62452 51.1126 8.71768 51.0161 8.80447 50.9468C8.8339 50.9233 8.8619 50.9051 8.88455 50.8901Z" fill="white" stroke="#AC6CFF" stroke-width="0.625"/>
<path d="M17.389 59.4678C17.5056 59.429 17.6459 59.4218 17.8411 59.4834C17.982 59.5556 18.0389 59.6054 18.0765 59.6709C18.1219 59.7502 18.1653 59.8993 18.1653 60.2266C18.1654 60.216 18.1693 60.2335 18.1019 60.3457C18.0506 60.4309 17.9655 60.5627 17.8802 60.7256L10.8294 67.7627C10.6046 67.987 10.4199 68.0594 10.2728 68.0596C10.1439 68.0596 9.98618 68.004 9.79816 67.8398L9.71613 67.7627C9.50323 67.5502 9.49565 67.0951 9.84113 66.8652L9.86652 66.8477L9.888 66.8262L16.971 59.7588C17.128 59.6021 17.2603 59.5106 17.389 59.4678Z" fill="white" stroke="#AC6CFF" stroke-width="0.625"/>
</svg>
