<svg width="101" height="100" viewBox="0 0 101 100" fill="none" xmlns="http://www.w3.org/2000/svg">
<circle cx="50.5" cy="50" r="50" fill="#AC6CFF"/>
<path d="M42.1962 30.7735C45.8917 24.1468 47.7379 20.8335 50.5 20.8335C53.2621 20.8335 55.1083 24.1468 58.8037 30.7735L59.7604 32.4885C60.8104 34.3727 61.3354 35.3147 62.1521 35.936C62.9687 36.5572 63.9896 36.7877 66.0312 37.2485L67.8862 37.6685C75.0612 39.2931 78.6458 40.1039 79.5004 42.8485C80.3521 45.5902 77.9079 48.4514 73.0167 54.171L71.7508 55.6497C70.3625 57.2743 69.6654 58.0881 69.3533 59.0914C69.0412 60.0977 69.1462 61.1827 69.3562 63.3497L69.5487 65.3243C70.2867 72.9572 70.6571 76.7722 68.4229 78.4668C66.1887 80.1643 62.8287 78.6156 56.1146 75.5239L54.3733 74.7247C52.4658 73.8439 51.5121 73.4064 50.5 73.4064C49.4879 73.4064 48.5342 73.8439 46.6267 74.7247L44.8883 75.5239C38.1712 78.6156 34.8112 80.1614 32.58 78.4697C30.3429 76.7722 30.7133 72.9572 31.4512 65.3243L31.6437 63.3527C31.8537 61.1827 31.9587 60.0977 31.6437 59.0943C31.3346 58.0881 30.6375 57.2743 29.2492 55.6527L27.9833 54.171C23.0921 48.4543 20.6479 45.5931 21.4996 42.8485C22.3542 40.1039 25.9417 39.2902 33.1167 37.6685L34.9717 37.2485C37.0104 36.7877 38.0283 36.5572 38.8479 35.936C39.6646 35.3147 40.1896 34.3727 41.2396 32.4885L42.1962 30.7735Z" stroke="#06071B" stroke-width="4"/>
</svg>
