<svg width="101" height="100" viewBox="0 0 101 100" fill="none" xmlns="http://www.w3.org/2000/svg">
<circle cx="50.5" cy="50" r="50" fill="#AC6CFF"/>
<path d="M41.75 35.4168H30.5063C33.215 31.6921 36.9073 28.795 41.1696 27.0502C45.4318 25.3055 50.0957 24.7819 54.6388 25.5381C55.0127 25.5844 55.3901 25.4843 55.6918 25.2585C55.9935 25.0328 56.1961 24.6991 56.2572 24.3273C56.3183 23.9554 56.2331 23.5744 56.0195 23.264C55.8058 22.9536 55.4804 22.738 55.1113 22.6622C53.5866 22.415 52.0445 22.2911 50.5 22.2918C46.2784 22.2989 42.114 23.2685 38.3235 25.1269C34.5329 26.9853 31.216 29.6835 28.625 33.0164V22.2918C28.625 21.9051 28.4714 21.5341 28.1979 21.2606C27.9244 20.9871 27.5535 20.8335 27.1667 20.8335C26.7799 20.8335 26.409 20.9871 26.1355 21.2606C25.862 21.5341 25.7083 21.9051 25.7083 22.2918V36.8752C25.7083 37.2619 25.862 37.6329 26.1355 37.9064C26.409 38.1798 26.7799 38.3335 27.1667 38.3335H41.75C42.1368 38.3335 42.5077 38.1798 42.7812 37.9064C43.0547 37.6329 43.2083 37.2619 43.2083 36.8752C43.2083 36.4884 43.0547 36.1175 42.7812 35.844C42.5077 35.5705 42.1368 35.4168 41.75 35.4168ZM37.375 57.2918C36.9882 57.2918 36.6173 57.4455 36.3438 57.719C36.0703 57.9925 35.9167 58.3634 35.9167 58.7502V69.9939C32.1919 67.2852 29.2949 63.5929 27.5501 59.3306C25.8053 55.0683 25.2817 50.4045 26.0379 45.8614C26.0843 45.4875 25.9841 45.1101 25.7584 44.8084C25.5327 44.5067 25.1989 44.304 24.8271 44.243C24.4553 44.1819 24.0743 44.2671 23.7639 44.4807C23.4535 44.6943 23.2378 45.0198 23.1621 45.3889C22.34 50.3271 22.8683 55.3957 24.691 60.0582C26.5137 64.7207 29.563 68.8038 33.5163 71.8752H22.7917C22.4049 71.8752 22.034 72.0288 21.7605 72.3023C21.487 72.5758 21.3333 72.9467 21.3333 73.3335C21.3333 73.7203 21.487 74.0912 21.7605 74.3647C22.034 74.6382 22.4049 74.7918 22.7917 74.7918H37.375C37.7618 74.7918 38.1327 74.6382 38.4062 74.3647C38.6797 74.0912 38.8333 73.7203 38.8333 73.3335V58.7502C38.8333 58.3634 38.6797 57.9925 38.4062 57.719C38.1327 57.4455 37.7618 57.2918 37.375 57.2918ZM73.8333 61.6668H59.25C58.8632 61.6668 58.4923 61.8205 58.2188 62.094C57.9453 62.3675 57.7917 62.7384 57.7917 63.1252C57.7917 63.5119 57.9453 63.8829 58.2188 64.1564C58.4923 64.4298 58.8632 64.5835 59.25 64.5835H70.4938C67.785 68.3083 64.0927 71.2053 59.8305 72.9501C55.5682 74.6949 50.9043 75.2185 46.3613 74.4622C45.9873 74.4159 45.61 74.5161 45.3082 74.7418C45.0065 74.9675 44.8039 75.3013 44.7428 75.6731C44.6817 76.0449 44.7669 76.4259 44.9805 76.7363C45.1942 77.0467 45.5196 77.2623 45.8888 77.3381C47.4134 77.5853 48.9555 77.7092 50.5 77.7085C54.7216 77.7014 58.886 76.7318 62.6765 74.8734C66.4671 73.0151 69.784 70.3168 72.375 66.9839V77.7085C72.375 78.0953 72.5287 78.4662 72.8021 78.7397C73.0756 79.0132 73.4466 79.1668 73.8333 79.1668C74.2201 79.1668 74.591 79.0132 74.8645 78.7397C75.138 78.4662 75.2917 78.0953 75.2917 77.7085V63.1252C75.2917 62.7384 75.138 62.3675 74.8645 62.094C74.591 61.8205 74.2201 61.6668 73.8333 61.6668ZM78.2083 25.2085H63.625C63.2382 25.2085 62.8673 25.3621 62.5938 25.6356C62.3203 25.9091 62.1667 26.2801 62.1667 26.6668V41.2502C62.1667 41.6369 62.3203 42.0079 62.5938 42.2814C62.8673 42.5549 63.2382 42.7085 63.625 42.7085C64.0118 42.7085 64.3827 42.5549 64.6562 42.2814C64.9297 42.0079 65.0833 41.6369 65.0833 41.2502V29.9918C67.894 32.0105 70.2392 34.6083 71.9608 37.6102C74.1466 41.3732 75.2959 45.6484 75.2917 50.0002C75.2917 51.3856 75.1838 52.771 74.9621 54.1389C74.9311 54.3277 74.9375 54.5208 74.9811 54.7072C75.0247 54.8935 75.1046 55.0694 75.2162 55.2249C75.3278 55.3803 75.4689 55.5123 75.6315 55.6132C75.7941 55.7141 75.9749 55.7821 76.1638 55.8131C76.3526 55.8441 76.5457 55.8376 76.732 55.794C76.9183 55.7504 77.0943 55.6706 77.2497 55.559C77.4052 55.4474 77.5371 55.3063 77.6381 55.1437C77.739 54.9811 77.8069 54.8002 77.8379 54.6114C78.0851 53.0868 78.209 51.5447 78.2083 50.0002C78.2127 45.1377 76.9296 40.3607 74.4896 36.1547C72.7129 33.0424 70.3366 30.3132 67.4983 28.1252H78.2083C78.5951 28.1252 78.966 27.9715 79.2395 27.698C79.513 27.4245 79.6667 27.0536 79.6667 26.6668C79.6667 26.2801 79.513 25.9091 79.2395 25.6356C78.966 25.3621 78.5951 25.2085 78.2083 25.2085Z" fill="#06071B"/>
</svg>
