<svg width="100" height="100" viewBox="0 0 100 100" fill="none" xmlns="http://www.w3.org/2000/svg">
<circle cx="50" cy="50" r="50" fill="#AC6CFF"/>
<path d="M50 49.575C54.3562 49.575 57.9075 45.6937 57.9075 40.9712C57.9075 36.3025 54.375 32.605 50 32.605C45.6625 32.605 42.0925 36.3575 42.0925 41.0075C42.11 45.7125 45.6612 49.575 50 49.575ZM28.9125 49.9762C32.6825 49.9762 35.7762 46.5887 35.7762 42.4337C35.7762 38.3712 32.72 35.0937 28.9125 35.0937C25.1412 35.0937 22.0287 38.425 22.0475 42.47C22.0662 46.6075 25.1412 49.9762 28.9125 49.9762ZM71.1062 49.9762C74.8587 49.9762 77.9525 46.6075 77.9525 42.47C77.9712 38.425 74.8587 35.0937 71.1062 35.0937C67.2812 35.0937 64.2238 38.37 64.2238 42.4337C64.2238 46.5887 67.3175 49.9762 71.1062 49.9762ZM50 46.81C47.3275 46.81 45.0387 44.2475 45.0387 41.0075C45.0387 37.8225 47.2912 35.37 50.0012 35.37C52.7275 35.37 54.9612 37.7862 54.9612 40.97C54.9612 44.2112 52.7087 46.81 50 46.81ZM28.9125 47.25C26.6788 47.25 24.775 45.1075 24.775 42.4712C24.775 39.8912 26.66 37.8212 28.9125 37.8212C31.2188 37.8212 33.0675 39.8537 33.0675 42.435C33.0675 45.1075 31.1637 47.25 28.9125 47.25ZM71.1062 47.25C68.8362 47.25 66.9325 45.1075 66.9325 42.435C66.9325 39.8537 68.7812 37.8225 71.1062 37.8225C73.3575 37.8225 75.225 39.8912 75.225 42.4725C75.225 45.1075 73.3387 47.25 71.1062 47.25ZM18.7337 66.7625H33.1037C32.225 66.2687 31.5475 65.17 31.6762 64.0537H18.2762C17.91 64.0537 17.7275 63.9075 17.7275 63.56C17.7275 59.02 22.9075 54.7725 28.8937 54.7725C31.2 54.7725 33.2687 55.3225 35.0437 56.365C35.6327 55.6187 36.33 54.9648 37.1125 54.425C34.7512 52.8687 31.9137 52.0637 28.8937 52.0637C21.2237 52.0637 15 57.6287 15 63.725C15 65.7562 16.245 66.7625 18.7337 66.7625ZM81.2837 66.7625C83.755 66.7625 85 65.7562 85 63.725C85 57.6287 78.775 52.0637 71.1062 52.0637C68.0862 52.0637 65.2662 52.8687 62.8875 54.4262C63.7113 54.9925 64.3875 55.6337 64.975 56.365C66.7312 55.3225 68.8175 54.7725 71.1062 54.7725C77.0925 54.7725 82.2725 59.02 82.2725 63.56C82.2725 63.9075 82.1075 64.0537 81.7412 64.0537H68.3412C68.4512 65.17 67.7925 66.2687 66.9137 66.7625H81.2837ZM38.5037 66.7625H61.4962C64.5337 66.7625 65.9812 65.8475 65.9812 63.8337C65.9812 59.0375 59.9212 52.1 50 52.1C40.06 52.1 34 59.0375 34 63.8337C34 65.8475 35.4475 66.7625 38.5037 66.7625ZM37.625 64C37.15 64 36.9487 63.8712 36.9487 63.4875C36.9487 60.4837 41.5987 54.865 50 54.865C58.3837 54.865 63.0337 60.4837 63.0337 63.4862C63.0337 63.8712 62.85 63.9987 62.375 63.9987L37.625 64Z" fill="#06071B"/>
</svg>
