<svg width="100" height="100" viewBox="0 0 100 100" fill="none" xmlns="http://www.w3.org/2000/svg">
<circle cx="50" cy="50" r="50" fill="#AC6CFF"/>
<path d="M41.25 35.4168H30.0063C32.715 31.6921 36.4073 28.795 40.6696 27.0502C44.9319 25.3055 49.5957 24.7819 54.1388 25.5381C54.5127 25.5844 54.8901 25.4843 55.1918 25.2585C55.4935 25.0328 55.6962 24.6991 55.7572 24.3273C55.8183 23.9554 55.7331 23.5744 55.5195 23.264C55.3059 22.9536 54.9804 22.738 54.6113 22.6622C53.0867 22.415 51.5446 22.2911 50 22.2918C45.7785 22.2989 41.6141 23.2685 37.8235 25.1269C34.033 26.9853 30.7161 29.6835 28.125 33.0164V22.2918C28.125 21.9051 27.9714 21.5341 27.6979 21.2606C27.4244 20.9871 27.0535 20.8335 26.6667 20.8335C26.2799 20.8335 25.909 20.9871 25.6355 21.2606C25.362 21.5341 25.2084 21.9051 25.2084 22.2918V36.8752C25.2084 37.2619 25.362 37.6329 25.6355 37.9064C25.909 38.1798 26.2799 38.3335 26.6667 38.3335H41.25C41.6368 38.3335 42.0077 38.1798 42.2812 37.9064C42.5547 37.6329 42.7084 37.2619 42.7084 36.8752C42.7084 36.4884 42.5547 36.1175 42.2812 35.844C42.0077 35.5705 41.6368 35.4168 41.25 35.4168ZM36.875 57.2918C36.4883 57.2918 36.1173 57.4455 35.8438 57.719C35.5704 57.9925 35.4167 58.3634 35.4167 58.7502V69.9939C31.6919 67.2852 28.7949 63.5929 27.0501 59.3306C25.3053 55.0683 24.7817 50.4045 25.538 45.8614C25.5843 45.4875 25.4841 45.1101 25.2584 44.8084C25.0327 44.5067 24.699 44.304 24.3271 44.243C23.9553 44.1819 23.5743 44.2671 23.2639 44.4807C22.9535 44.6943 22.7379 45.0198 22.6621 45.3889C21.8401 50.3271 22.3683 55.3957 24.191 60.0582C26.0137 64.7207 29.0631 68.8038 33.0163 71.8752H22.2917C21.9049 71.8752 21.534 72.0288 21.2605 72.3023C20.987 72.5758 20.8334 72.9467 20.8334 73.3335C20.8334 73.7203 20.987 74.0912 21.2605 74.3647C21.534 74.6382 21.9049 74.7918 22.2917 74.7918H36.875C37.2618 74.7918 37.6327 74.6382 37.9062 74.3647C38.1797 74.0912 38.3334 73.7203 38.3334 73.3335V58.7502C38.3334 58.3634 38.1797 57.9925 37.9062 57.719C37.6327 57.4455 37.2618 57.2918 36.875 57.2918ZM73.3334 61.6668H58.75C58.3633 61.6668 57.9923 61.8205 57.7188 62.094C57.4454 62.3675 57.2917 62.7384 57.2917 63.1252C57.2917 63.5119 57.4454 63.8829 57.7188 64.1564C57.9923 64.4298 58.3633 64.5835 58.75 64.5835H69.9938C67.2851 68.3083 63.5928 71.2053 59.3305 72.9501C55.0682 74.6949 50.4043 75.2185 45.8613 74.4622C45.4874 74.4159 45.11 74.5161 44.8083 74.7418C44.5066 74.9675 44.3039 75.3013 44.2428 75.6731C44.1817 76.0449 44.2669 76.4259 44.4806 76.7363C44.6942 77.0467 45.0197 77.2623 45.3888 77.3381C46.9134 77.5853 48.4555 77.7092 50 77.7085C54.2216 77.7014 58.386 76.7318 62.1766 74.8734C65.9671 73.0151 69.284 70.3168 71.875 66.9839V77.7085C71.875 78.0953 72.0287 78.4662 72.3022 78.7397C72.5757 79.0132 72.9466 79.1668 73.3334 79.1668C73.7201 79.1668 74.0911 79.0132 74.3646 78.7397C74.6381 78.4662 74.7917 78.0953 74.7917 77.7085V63.1252C74.7917 62.7384 74.6381 62.3675 74.3646 62.094C74.0911 61.8205 73.7201 61.6668 73.3334 61.6668ZM77.7084 25.2085H63.125C62.7383 25.2085 62.3673 25.3621 62.0938 25.6356C61.8204 25.9091 61.6667 26.2801 61.6667 26.6668V41.2502C61.6667 41.6369 61.8204 42.0079 62.0938 42.2814C62.3673 42.5549 62.7383 42.7085 63.125 42.7085C63.5118 42.7085 63.8827 42.5549 64.1562 42.2814C64.4297 42.0079 64.5834 41.6369 64.5834 41.2502V29.9918C67.394 32.0105 69.7392 34.6083 71.4609 37.6102C73.6467 41.3732 74.796 45.6484 74.7917 50.0002C74.7917 51.3856 74.6838 52.771 74.4621 54.1389C74.4311 54.3277 74.4376 54.5208 74.4812 54.7072C74.5248 54.8935 74.6046 55.0694 74.7162 55.2249C74.8278 55.3803 74.9689 55.5123 75.1315 55.6132C75.2941 55.7141 75.475 55.7821 75.6638 55.8131C75.8526 55.8441 76.0457 55.8376 76.232 55.794C76.4184 55.7504 76.5943 55.6706 76.7497 55.559C76.9052 55.4474 77.0372 55.3063 77.1381 55.1437C77.239 54.9811 77.3069 54.8002 77.338 54.6114C77.5851 53.0868 77.709 51.5447 77.7084 50.0002C77.7127 45.1377 76.4297 40.3607 73.9896 36.1547C72.2129 33.0424 69.8367 30.3132 66.9984 28.1252H77.7084C78.0951 28.1252 78.4661 27.9715 78.7396 27.698C79.0131 27.4245 79.1667 27.0536 79.1667 26.6668C79.1667 26.2801 79.0131 25.9091 78.7396 25.6356C78.4661 25.3621 78.0951 25.2085 77.7084 25.2085Z" fill="#06071B"/>
</svg>
